<?xml version="1.0" encoding="UTF-8" standalone="no"?>
<svg
   viewBox="0 0 71.819999 71.809996"
   version="1.1"
   id="svg197"
   width="71.82"
   height="71.809998"
   xmlns="http://www.w3.org/2000/svg">
  <path
     d="m 35.91,12.04 c 0.85,0 1.54,-0.69 1.54,-1.54 V 9.73 c 0,-1.54 -0.69,-1.54 -1.54,-1.54 -0.85,0 -1.54,0.7 -1.54,1.54 v 0.77 c 0,0.85 0.69,1.54 1.54,1.54 z m 0,47.73 c -0.85,0 -1.54,0.69 -1.54,1.53 v 0.77 c 0,0.85 0.69,1.54 1.54,1.54 0.85,0 1.54,-0.69 1.54,-1.54 V 61.3 c 0,-0.84 -0.69,-1.53 -1.54,-1.53 z M 10.51,34.36 H 9.74 c -0.85,0 -1.54,0.7 -1.54,1.54 0,0.85 0.69,1.54 1.54,1.54 h 0.77 c 0.85,0 3.27,-0.69 1.54,-1.54 0,-0.84 -0.69,-1.54 -1.54,-1.54 z m 51.57,0 h -0.77 c -0.84,0 -1.54,0.7 -1.54,1.54 0,0.85 0.7,1.54 1.54,1.54 h 0.77 c 0.85,0 1.54,-0.69 1.54,-1.54 0,-0.84 -0.69,-1.54 -1.54,-1.54 M 18.52,16.35 c -0.62,-0.61 -1.54,-0.61 -2.16,0 -0.62,0.62 -0.62,1.54 0,2.16 l 0.54,0.54 c 0.31,0.3 0.69,0.46 1.08,0.46 0.38,0 0.69,-0.16 1.07,-0.46 0.62,-0.62 0.62,-1.54 0,-2.16 L 18.52,16.35 M 16.9,52.76 16.36,53.3 c -0.62,0.62 -0.62,1.54 0,2.15 0.31,0.31 0.69,0.47 1.08,0.47 0.38,0 0.77,-0.16 1.08,-0.47 l 0.53,-0.53 c 0.62,-0.62 0.62,-1.54 0,-2.16 -0.61,-0.61 -1.54,-0.61 -2.15,0 m 36.41,-36.41 -0.54,0.54 c -0.62,0.62 -0.62,1.54 0,2.16 0.33,0.3 0.69,0.46 1.08,0.46 0.38,0 0.77,-0.16 1.07,-0.46 l 0.54,-0.54 c 0.62,-0.62 0.62,-1.54 0,-2.16 -0.61,-0.61 -1.54,-0.61 -2.15,0 M 37.45,35.29 V 21.28 c 0,-0.85 -0.69,-1.54 -1.54,-1.54 -0.85,0 -1.54,0.69 -1.54,1.54 V 35.9 c 0,0.39 0.16,0.77 0.46,1.08 l 16.86,16.86 c 0.31,0.31 0.69,0.46 1.08,0.46 0.38,0 0.77,-0.15 1.08,-0.46 0.61,-0.62 0.61,-1.54 0,-2.16 L 37.45,35.29 M 35.91,0.5 C 16.36,0.5 0.5,16.35 0.5,35.9 0.5,55.45 16.36,71.31 35.91,71.31 55.46,71.31 71.32,55.45 71.32,35.9 71.32,16.35 55.46,0.5 35.91,0.5 m 0,67.73 C 18.05,68.23 3.58,53.76 3.58,35.9 3.58,18.05 18.05,3.57 35.91,3.57 c 17.86,0 32.33,14.48 32.33,32.33 0,17.86 -14.47,32.33 -32.33,32.33"
     fill="#000000"
     stroke-miterlimit="10"
     pointer-events="all"
     id="path185" />
</svg>
