<?xml version="1.0" encoding="UTF-8" standalone="no"?>
<!DOCTYPE svg PUBLIC "-//W3C//DTD SVG 1.1//EN" "http://www.w3.org/Graphics/SVG/1.1/DTD/svg11.dtd">
<svg version="1.1" xmlns="http://www.w3.org/2000/svg" xmlns:xlink="http://www.w3.org/1999/xlink" preserveAspectRatio="xMidYMid meet" viewBox="0 0 640 640" width="640" height="640">
    <defs>
        <path d="M409.32 398.22C407.61 396.52 405.33 395.95 402.49 395.95C399.64 395.95 397.37 397.08 395.66 398.22C395.61 398.22 395.15 398.22 395.09 398.22C393.39 397.08 391.68 395.95 389.97 395.95C423.54 372.62 446.29 333.94 446.29 290.13C446.29 282.17 445.72 274.2 444.02 266.24C446.29 259.41 447.43 252.02 447.43 244.05C447.43 241.78 447.43 238.93 446.86 236.66C446.86 232.14 446.86 209.58 446.86 168.96L371.77 168.96C371.09 168.96 370.71 168.96 370.63 168.96C370.63 168.96 367.79 169.53 363.8 170.67C333.65 158.72 299.52 158.72 269.37 170.67C265.39 169.53 263.11 168.96 263.11 168.96C258.07 168.96 232.85 168.96 187.45 168.96C187.45 209.58 187.45 232.14 187.45 236.66C187.45 238.93 186.88 241.78 186.88 244.05C186.88 251.45 188.02 258.28 190.29 265.1C189.16 273.07 188.02 281.6 188.02 290.13C188.02 333.94 210.2 372.62 244.34 395.95C242.06 396.52 240.36 397.08 238.65 398.22C238.59 398.22 238.14 398.22 238.08 398.22C236.37 396.52 234.1 395.95 231.25 395.95C228.41 395.95 226.13 397.08 224.43 398.22C219.19 398.22 177.32 398.22 172.09 398.22C161.85 398.22 153.32 406.76 153.32 417C153.32 427.24 161.85 435.77 172.09 435.77C177.15 435.77 217.66 435.77 222.72 435.77C224.43 438.61 227.84 440.32 231.82 440.32C234.67 440.32 236.94 439.18 239.22 437.48C240.92 439.18 243.77 440.32 246.61 440.32C249.46 440.32 251.73 439.18 254.01 437.48C255.72 439.18 258.56 440.32 261.4 440.32C265.39 440.32 268.23 438.61 270.51 435.77C280.06 435.77 356.52 435.77 366.08 435.77C367.79 438.61 371.2 440.32 375.18 440.32C378.03 440.32 380.3 439.18 382.58 437.48C384.28 439.18 387.13 440.32 389.97 440.32C392.82 440.32 395.09 439.18 397.37 437.48C399.08 439.18 401.92 440.32 404.76 440.32C408.75 440.32 411.59 438.61 413.87 435.77C419.56 435.77 465.07 435.77 470.76 435.77C481 435.77 489.53 427.24 489.53 417C489.53 406.76 478.72 398.22 467.91 398.22C456.19 398.22 415.18 398.22 409.32 398.22ZM172.09 424.96C168.11 424.96 164.69 421.55 164.69 417.56C164.69 413.58 167.54 409.6 172.09 409.6C175.31 409.6 191.43 409.6 220.44 409.6L220.44 424.96C191.43 424.96 175.31 424.96 172.09 424.96ZM231.25 433.49C229.55 433.49 227.84 431.79 227.84 430.08C227.84 427.69 227.84 408.58 227.84 406.19C227.84 404.48 229.55 402.77 231.25 402.77C232.96 402.77 234.67 404.48 234.67 406.19C234.67 407.78 234.67 415.74 234.67 430.08C233.53 432.36 232.39 433.49 231.25 433.49ZM434.92 205.94C426.95 194.56 416.14 185.46 403.06 180.34C405.18 180.34 415.8 180.34 434.92 180.34C434.92 195.7 434.92 204.23 434.92 205.94ZM435.48 244.05C435.48 275.91 409.88 301.51 378.03 301.51C350.72 301.51 328.53 276.48 322.28 252.59C322.12 252.06 321.37 249.4 320 244.62C321.37 239.84 322.12 237.19 322.28 236.66C328.53 211.63 351.29 186.6 378.03 186.6C409.88 186.6 435.48 212.2 435.48 244.05ZM317.16 297.53C314.31 295.25 311.47 292.98 308.62 290.7C312.04 286.72 314.88 282.74 316.59 278.76C319.43 283.31 322.84 287.29 325.69 290.13C322.84 292.41 319.43 295.25 317.16 297.53ZM317.16 217.88C309.19 201.39 295.54 186.6 277.9 179.77C302.93 170.67 330.81 170.67 355.84 179.77C338.2 187.16 324.55 201.96 317.16 217.88ZM231.25 180.34C218.17 185.46 207.36 194.56 199.4 205.94C199.4 204.23 199.4 195.7 199.4 180.34C218.51 180.34 229.13 180.34 231.25 180.34ZM312.04 235.52C312.19 236.05 312.95 238.71 314.31 243.48C312.95 248.26 312.19 250.92 312.04 251.45C305.78 275.34 283.59 300.37 256.28 300.37C224.43 300.37 198.83 274.77 198.83 242.92C198.83 212.2 224.43 186.6 256.28 186.6C283.59 186.6 305.78 211.63 312.04 235.52ZM245.48 433.49C243.77 433.49 242.06 431.79 242.06 430.08C242.06 427.69 242.06 408.58 242.06 406.19C242.06 404.48 243.77 402.77 245.48 402.77C247.18 402.77 248.89 404.48 248.89 406.19C248.89 407.78 248.89 415.74 248.89 430.08C247.75 432.36 246.61 433.49 245.48 433.49ZM260.27 433.49C258.56 433.49 256.85 431.79 256.85 430.08C256.85 427.69 256.85 408.58 256.85 406.19C256.85 404.48 258.56 402.77 260.27 402.77C261.97 402.77 263.68 404.48 263.68 406.19C263.68 407.78 263.68 415.74 263.68 430.08C262.54 432.36 261.4 433.49 260.27 433.49ZM271.08 424.96L271.08 409.6L362.67 409.6L362.67 424.96L271.08 424.96ZM373.48 433.49C371.77 433.49 370.06 431.79 370.06 430.08C370.06 427.69 370.06 408.58 370.06 406.19C370.06 404.48 371.77 402.77 373.48 402.77C375.18 402.77 376.89 404.48 376.89 406.19C376.89 407.78 376.89 415.74 376.89 430.08C375.75 432.36 374.61 433.49 373.48 433.49ZM272.21 398.22C229.55 381.16 199.4 339.06 199.4 290.13C199.4 287.86 199.4 285.58 199.96 283.31C212.48 300.94 232.96 312.89 256.28 312.89C272.21 312.89 286.44 306.06 297.81 296.39C302.93 300.37 310.9 306.63 313.17 308.34C313.44 308.64 314.77 310.16 317.16 312.89C319.89 310.5 321.4 309.17 321.71 308.91C321.71 308.91 332.52 299.8 337.64 295.82C349.01 306.06 363.24 312.89 379.73 312.89C402.49 312.89 422.97 301.51 435.48 284.44C435.48 286.15 436.05 288.43 436.05 290.13C434.35 339.06 404.2 381.16 361.53 398.22C343.67 398.22 281.14 398.22 272.21 398.22ZM387.7 433.49C385.99 433.49 384.28 431.79 384.28 430.08C384.28 427.69 384.28 408.58 384.28 406.19C384.28 404.48 385.99 402.77 387.7 402.77C389.4 402.77 391.11 404.48 391.11 406.19C391.11 407.78 391.11 415.74 391.11 430.08C389.97 432.36 388.84 433.49 387.7 433.49ZM402.49 434.06C400.78 434.06 399.08 432.36 399.08 430.65C399.08 428.26 399.08 409.14 399.08 406.76C399.08 405.05 400.78 403.34 402.49 403.34C404.2 403.34 405.9 405.05 405.9 406.76C405.9 408.35 405.9 416.31 405.9 430.65C404.76 432.92 403.63 434.06 402.49 434.06ZM412.73 424.96L412.73 409.6C445.84 409.6 464.23 409.6 467.91 409.6C471.89 409.6 475.31 413.01 475.31 417C475.31 420.98 472.46 424.96 467.91 424.96C460.55 424.96 442.16 424.96 412.73 424.96ZM254.58 106.38L254.58 116.05L216.46 116.05L216.46 107.52L216.46 107.52L238.65 80.78L218.17 80.78L218.17 71.11L254.01 71.11L254.01 79.64L254.01 79.64L231.25 106.38L254.58 106.38ZM298.38 138.24L271.08 138.24L271.08 131.98L271.08 131.98L286.44 113.21L272.21 113.21L272.21 105.81L297.81 105.81L297.81 112.07L297.81 112.07L281.88 130.84L298.38 130.84L298.38 138.24ZM275.63 241.78C275.63 253.16 266.52 262.83 254.58 262.83C243.2 262.83 233.53 253.72 233.53 241.78C233.53 241.78 233.53 241.78 233.53 241.78C236.94 248.04 244.91 253.16 254.58 253.16C264.25 253.16 272.78 248.6 275.63 241.78C275.63 241.78 275.63 241.78 275.63 241.78ZM401.35 241.78C401.35 253.16 392.25 262.83 380.3 262.83C368.92 262.83 359.25 253.72 359.25 241.78C359.25 241.78 359.25 241.78 359.25 241.78C362.67 248.04 370.63 253.16 380.3 253.16C389.97 253.16 397.94 248.6 401.35 241.78C401.35 241.78 401.35 241.78 401.35 241.78Z" id="d43leNYerR"></path>
    </defs>
    <g>
        <g>
            <g>
                <use xlink:href="#d43leNYerR" opacity="1" fill="#4f01b4" fill-opacity="1"></use>
                <g>
                    <use xlink:href="#d43leNYerR" opacity="1" fill-opacity="0" stroke="#000000" stroke-width="1" stroke-opacity="0"></use>
                </g>
            </g>
        </g>
    </g>
</svg>
