<?xml version="1.0" encoding="UTF-8" standalone="no"?>
<svg
   viewBox="0 0 39.700969 66.225003"
   version="1.1"
   id="svg233"
   width="39.70097"
   height="66.224998"
   xmlns="http://www.w3.org/2000/svg">
  <path
     d="m 34.360971,41.57 -6.81,-2.56 c -0.69,-0.26 -1.15,-0.92 -1.15,-1.66 v -1.21 c 4.1,-2.35 6.64,-6.72 6.64,-11.46 V 19.7 c 0,-4.06 -1.87,-7.9 -5.07,-10.4 0.06,-0.41 0.09,-0.83 0.09,-1.24 -0.08,-4.48 -3.73,-8.06 -8.21,-8.06 -4.47,0 -8.12,3.58 -8.21,8.06 0,0.41 0.04,0.83 0.1,1.24 -3.2099995,2.5 -5.0799995,6.33 -5.0799995,10.4 v 4.98 c 0,4.73 2.54,9.1 6.6499995,11.45 v 1.22 c 0,0.74 -0.46,1.4 -1.15,1.66 l -6.8399995,2.56 c -3.19,1.21 -5.30000003,4.26 -5.32000003361,7.67 V 64.59 C -0.01902853,65.16 0.27097147,65.7 0.76097147,65.99 c 0.49000003,0.3 1.11000003,0.3 1.60000003,0 0.49,-0.29 0.78,-0.83 0.76,-1.4 V 49.24 c 0,-0.26 0.02,-0.53 0.06,-0.79 l 2.47,2.47 c 0.65,0.65 1.01,1.52 1.01,2.43 v 11.24 c -0.03,0.57 0.26,1.11 0.75,1.4 0.5,0.3 1.11,0.3 1.6,0 0.49,-0.29 0.78,-0.83 0.76,-1.4 V 53.36 c 0,-1.73 -0.69,-3.4 -1.92,-4.62 l -3.16,-3.16 c 0.5,-0.49 1.09,-0.86 1.73,-1.11 l 5.6299995,-2.11 6.25,6.24 v 15.99 c -0.03,0.57 0.26,1.11 0.75,1.4 0.5,0.3 1.11,0.3 1.6,0 0.49,-0.29 0.78,-0.83 0.76,-1.4 V 48.61 l 6.24,-6.24 5.63,2.11 c 0.65,0.25 1.24,0.63 1.73,1.11 l -3.15,3.16 c -1.23,1.22 -1.92,2.88 -1.92,4.61 V 64.6 c -0.03,0.57 0.27,1.11 0.76,1.4 0.49,0.3 1.1,0.3 1.59,0 0.49,-0.29 0.78,-0.83 0.76,-1.4 V 53.36 c 0,-0.91 0.36,-1.78 1,-2.42 l 2.48,-2.48 c 0.04,0.27 0.06,0.53 0.06,0.8 V 64.6 c 0.04,0.84 0.72,1.49 1.56,1.49 0.83,0 1.52,-0.65 1.55,-1.49 V 49.24 c -0.01,-3.41 -2.14,-6.47 -5.34,-7.67 z m -14.51,-38.61 c 2.61,0.01 4.79,1.97 5.07,4.55 -3.24,-1.35 -6.89,-1.35 -10.13,0 0.28,-2.58 2.46,-4.55 5.06,-4.55 z M 9.7709715,19.7 c 0,-5.57 4.5099995,-10.09 10.0799995,-10.09 5.57,0 10.09,4.52 10.09,10.09 v 1.71 c -7.25,-0.56 -14.2,-4.67 -14.27,-4.71 -0.38,-0.22 -0.82,-0.28 -1.24,-0.16 -0.42,0.12 -0.76,0.41 -0.96,0.8 -0.7,1.41 -2.3,2.54 -3.6999995,3.3 z m 0,4.98 v -0.6 c 1.4299995,-0.61 3.9599995,-1.93 5.6099995,-3.99 2.53,1.33 8.37,4.03 14.56,4.43 v 0.16 c 0,5.57 -4.52,10.09 -10.09,10.09 -5.57,0 -10.0799995,-4.52 -10.0799995,-10.09 z m 10.0799995,21.08 -4.92,-4.91 c 0.93,-0.9 1.46,-2.13 1.49,-3.42 2.25,0.61 4.62,0.61 6.87,0 0.02,1.29 0.56,2.52 1.48,3.42 z"
     fill="#000000"
     stroke="none"
     pointer-events="all"
     id="path158" />
</svg>
