<?xml version="1.0" encoding="UTF-8" standalone="no"?>
<svg
   viewBox="0 0 67.291679 67.635928"
   version="1.1"
   id="svg3746"
   width="67.291679"
   height="67.635925"
   xmlns="http://www.w3.org/2000/svg">
  <path
     d="m 9.96,0.00350856 c -2.51,-0.08 -5.08,1.22000004 -6.68,2.68000004 -2.09,1.96 -3.28,4.69 -3.28,7.5500004 0,0.42 0,2.54 0,6.36 8.13,0 12.65,0 13.55,0 0.38,5.41 -0.98,9.81 -2.66,14.34 -4.99,12.74 -6.37,18.87 -2.73,29.3 1.19,4.02 4.7,6.89 8.71,7.37 14.98,-0.04 26.42,0.08 40.14,0.01 2.76,-0.01 5.39,-1.12 7.32,-3.09 1.94,-1.97 3.01,-5.44 2.96,-8.2 0,-0.3 -0.04,-2.69 -0.04,-2.99 -3.82,0.05 -7.64,0.02 -11.46,0.02 -0.36,-2.42 -0.42,-3.88 -0.26,-5.8 0.32,-4.12 1.58,-7.51 2.98,-11.36 1.39,-3.86 2.91,-8.17 3.27,-13.63 0.18,-2.78 0.07,-6.46 -0.46,-9.91 0,0 0,-0.03 -0.01,-0.08 -0.01,-0.04 -0.01,-0.06 -0.01,-0.06 -0.53,-2.5900004 -1.05,-5.4200004 -2.62,-7.9700004 -1.57,-2.55 -4.82,-4.54000004 -8.52,-4.54000004 -8.04,0 -32.16,0 -40.2,0 z M 12.48,10.593509 c -0.64,0 -5.83,0 -6.47,0 -0.07,-2.1000004 0.91,-3.0600004 1.37,-3.5200004 0.81,-0.65 1.4,-1.13 3.46,-1.13 0.68,1.63 1.23,3.18 1.64,4.6500004 z M 53.57,7.6835086 c 0.74,1.21 1.31,3.4600004 1.82,5.9600004 0.44,2.88 0.54,6.3 0.39,8.53 -0.3,4.57 -1.54,8.15 -2.92,11.96 -1.38,3.82 -2.91,7.88 -3.32,12.94 -0.16,2.15 -0.12,3.74 0.2,6.28 -1.84,0 -11.03,0 -27.57,0 0,2.67 0,4.15 0,4.45 -0.48,1.53 -1.78,3.5 -3.46,3.76 -2.34,0.35 -4.35,-1.2 -4.8,-3.05 -4.35,-11.33 0.02,-18.15 2.61,-25.5 2.58,-6.97 3.72,-15.86 0.02,-26.9100004 11.77,-0.03 23.73,0.01 33.79,-0.02 2.09,0.01 2.49,0.39 3.24,1.6 z m 6.61,50.8700004 c 0,1.32 -1.68,3.85 -2.64,3.85 -9.81,0.02 -20.51,0 -30.35,0 0.68,-0.18 1.38,-2.94 1.38,-3.85 6.32,0 28.44,0 31.61,0 z"
     fill="#000000"
     stroke="none"
     pointer-events="all"
     id="path3742" />
  <path
     d="m 26.73,19.183509 v 3 h 20.52 v -3 z m -2.91,17.59 v 3 h 20.5 v -3 z"
     fill="#000000"
     stroke="none"
     pointer-events="all"
     id="path3744" />
</svg>
