<?xml version="1.0" encoding="UTF-8" standalone="no"?>
<svg
   viewBox="0 0 70.714348 72.315994"
   version="1.1"
   id="svg43"
   width="70.714348"
   height="72.315994"
   xmlns="http://www.w3.org/2000/svg">
  <path
     d="m 1.9432193,16.91127 5.38,4.2 -0.58,4.49 -6.16,2.45 1.95,8.5 6.94,-0.88 2.6399997,3.71 -2.5399997,6.06 7.2299997,4.5 4.21,-5.38 4.68,0.59 2.45,6.16 8.4,-1.96 -0.78,-7.04 3.62,-2.93 5.76,3.03 4.88,-7.43 -5.66,-4.39 0.59,-4.4 6.35,-2.45 -1.86,-8.4 -7.33,0.79 -2.54,-3.33 2.64,-6.4499999 -7.33,-4.3 -4.59,5.48 -4.5,-0.69 -2.84,-6.25000002 -8.1,2.14000002 0.78,6.85 -3.03,2.6299999 -6.2499997,-2.6299999 z m 15.0799997,9.53 c 0,-4.94 4.01,-8.95 8.95,-8.95 4.94,0 8.95,4.01 8.95,8.95 0,4.95 -4.01,8.95 -8.95,8.95 -4.94,0 -8.95,-4 -8.95,-8.95 z"
     fill="#ffffff"
     stroke="#000000"
     stroke-miterlimit="10"
     pointer-events="all"
     id="path37" />
  <path
     d="m 20.773219,37.33127 5.38,4.2 -0.58,4.49 -6.16,2.45 1.95,8.5 6.94,-0.88 2.64,3.71 -2.54,6.06 7.23,4.5 4.2,-5.38 4.69,0.59 2.45,6.16 8.4,-1.96 -0.78,-7.03 3.62,-2.94 5.76,3.03 4.88,-7.43 -5.66,-4.39 0.59,-4.4 6.35,-2.45 -1.86,-8.4 -7.33,0.79 -2.54,-3.33 2.64,-6.45 -7.33,-4.3 -4.59,5.48 -4.5,-0.69 -2.84,-6.25 -8.1,2.14 0.78,6.85 -3.03,2.64 -6.25,-2.64 z m 15.08,9.53 c 0,-4.94 4.01,-8.95 8.95,-8.95 4.94,0 8.95,4.01 8.95,8.95 0,4.95 -4.01,8.95 -8.95,8.95 -4.94,0 -8.95,-4 -8.95,-8.95 z"
     fill="#ffffff"
     stroke="#000000"
     stroke-miterlimit="10"
     pointer-events="all"
     id="path39" />
  <path
     d="m 35.853219,46.86127 c 0,-4.94 4.01,-8.95 8.95,-8.95 4.94,0 8.95,4.01 8.95,8.95 0,4.95 -4.01,8.95 -8.95,8.95 -4.94,0 -8.95,-4 -8.95,-8.95 z"
     fill="#ffffff"
     stroke="#000000"
     stroke-miterlimit="10"
     pointer-events="all"
     id="path41" />
</svg>
