<?xml version="1.0" encoding="UTF-8" standalone="no"?>
<svg
   viewBox="0 0 28.407288 28.288325"
   version="1.1"
   id="svg189"
   width="28.407288"
   height="28.288324"
   xmlns="http://www.w3.org/2000/svg">
  <path
     d="m 19.07962,26.842488 c 0.74,-1.56 -0.89,-2.36 -0.89,-2.36 -0.43,-0.26 -2.56,-1.56 -6.4,-3.91 l 0.46,-0.78 c 6.22,1.68 9.67,2.61 10.36,2.8 0,0 1.73,0.37 2.06,-1.25 0.39,-1.8 -1.05,-2.33 -1.05,-2.33 -0.67,-0.18 -4.04,-1.06 -10.1,-2.64 l 0.24,-0.87 c 7.26,0.77 11.3,1.19 12.1,1.28 0,0 1.89,0.11 2.04,-1.7 0.15,-1.82 -1.7,-2.04 -1.7,-2.04 -0.81,-0.08 -4.85,-0.49 -12.11,-1.23 v -0.79 c 6.73,-0.55 10.47,-0.85 11.22,-0.91 0,0 1.83,-0.4200004 1.83,-2.0000004 0,-1.58 -2.15,-1.66 -2.15,-1.66 -0.92,0.03 -5.52,0.16 -13.8,0.4 l -0.44,-0.4 c 1.41,-1.8 2.2,-2.8 2.36,-3 0,0 1.12,-1.41 -0.03,-2.53999998 -1.03,-1.02 -2.62,0.13999998 -2.62,0.13999998 -0.6100001,0.4 -3.6600001,2.37 -9.1500001,5.92 L 0.51961988,20.072488 c 9.84000012,4.56 15.31000012,7.09 16.40000012,7.59 0,0 1.46,0.6 2.16,-0.82"
     fill="#ffffff"
     stroke="#000000"
     stroke-miterlimit="10"
     pointer-events="all"
     id="path187" />
</svg>
